Coordinates
version=1
nRows=43
nColumns=12
inDegrees=yes

Units are S.I. units (second, meters, Newtons, ...)
Angles are in degrees

endheader
time	SC_y	SC_z	SC_x	AC_y	AC_z	AC_x	GH_y	GH_z	GH_yy	EL_x	PS_y
       0.0              -18.71          38.52           9.43          69.43         -12.53         -2.077          5.663          5.539          132.9          12.61          67.61
   0.03262              -18.71          38.52          9.434          69.42         -12.53         -2.074          5.684           5.54          132.8          12.61          67.61
   0.06524              -18.72          38.52          9.437          69.42         -12.53         -2.071          5.707          5.542          132.8          12.61          67.61
   0.09787              -18.73          38.51          9.441          69.41         -12.53         -2.068          5.732          5.544          132.8           12.6          67.61
    0.1305              -18.73          38.51          9.445           69.4         -12.53         -2.065          5.757          5.545          132.7           12.6           67.6
    0.1631              -18.74          38.51           9.45           69.4         -12.52         -2.061          5.785          5.547          132.7           12.6           67.6
    0.1957              -18.75          38.51          9.455          69.39         -12.52         -2.058          5.815          5.549          132.6           12.6           67.6
    0.2284              -18.76          38.51           9.46          69.38         -12.52         -2.054          5.846          5.551          132.6           12.6           67.6
     0.261              -18.77           38.5          9.465          69.37         -12.52          -2.05           5.88          5.554          132.5           12.6           67.6
    0.2936              -18.78           38.5          9.471          69.36         -12.51         -2.045          5.916          5.556          132.5          12.59          67.59
    0.3262              -18.79           38.5          9.477          69.35         -12.51          -2.04          5.955          5.559          132.4          12.59          67.59
    0.3588               -18.8           38.5          9.484          69.34         -12.51         -2.035          5.997          5.561          132.4          12.59          67.59
    0.3915              -18.81          38.49          9.491          69.33          -12.5          -2.03          6.042          5.564          132.3          12.59          67.59
    0.4241              -18.83          38.49          9.499          69.32          -12.5         -2.024           6.09          5.568          132.2          12.59          67.59
    0.4567              -18.84          38.49          9.507          69.31         -12.49         -2.017          6.143          5.571          132.1          12.58          67.58
    0.4893              -18.86          38.48          9.516          69.29         -12.49          -2.01            6.2          5.575          132.0          12.58          67.58
     0.522              -18.87          38.48          9.526          69.28         -12.48         -2.002          6.262          5.579          131.9          12.58          67.58
    0.5546              -18.89          38.47          9.537          69.26         -12.48         -1.994           6.33          5.584          131.8          12.57          67.57
    0.5872              -18.91          38.47          9.549          69.24         -12.47         -1.985          6.404          5.588          131.7          12.57          67.57
    0.6198              -18.94          38.46          9.562          69.22         -12.46         -1.975          6.485          5.594          131.6          12.57          67.56
    0.6524              -18.96          38.46          9.576           69.2         -12.46         -1.964          6.574            5.6          131.4          12.56          67.56
    0.6851              -18.99          38.45          9.592          69.18         -12.45         -1.952          6.672          5.606          131.3          12.56          67.55
    0.7177              -19.02          38.44          9.609          69.15         -12.44         -1.939           6.78          5.613          131.1          12.55          67.55
    0.7503              -19.05          38.44          9.628          69.12         -12.43         -1.924          6.899          5.621          130.9          12.54          67.54
    0.7829              -19.09          38.43           9.65          69.09         -12.42         -1.907          7.032           5.63          130.7          12.54          67.53
    0.8156              -19.13          38.42          9.674          69.05         -12.41         -1.889          7.181           5.64          130.5          12.53          67.52
    0.8482              -19.17          38.41            9.7          69.01         -12.39         -1.868          7.347          5.651          130.2          12.52          67.52
    0.8808              -19.23          38.39           9.73          68.96         -12.38         -1.845          7.534          5.664          129.9          12.51           67.5
    0.9134              -19.28          38.38          9.764          68.91         -12.36         -1.819          7.746          5.678          129.6           12.5          67.49
     0.946              -19.35          38.36          9.803          68.85         -12.34          -1.79          7.986          5.694          129.2          12.49          67.48
    0.9787              -19.43          38.34          9.847          68.78         -12.31         -1.756          8.259          5.712          128.8          12.48          67.46
     1.011              -19.51          38.32          9.897           68.7         -12.29         -1.717          8.574          5.733          128.3          12.46          67.45
     1.044              -19.61           38.3          9.955          68.61         -12.26         -1.672          8.937          5.757          127.7          12.44          67.43
     1.077              -19.73          38.27          10.02          68.51         -12.22          -1.62          9.359          5.785          127.1          12.42           67.4
     1.109              -19.87          38.24           10.1          68.39         -12.18         -1.559          9.852          5.818          126.3          12.39          67.38
     1.142              -20.03           38.2           10.2          68.24         -12.13         -1.487          10.43          5.857          125.4          12.36          67.34
     1.174              -20.22          38.15          10.31          68.07         -12.07         -1.402          11.13          5.903          124.3          12.33           67.3
     1.207              -20.45           38.1          10.44          67.86          -12.0           -1.3          11.95          5.958          123.0          12.29          67.26
      1.24              -20.72          38.03           10.6          67.62         -11.92         -1.176          12.96          6.025          121.4          12.24           67.2
     1.272              -21.06          37.95           10.8          67.31         -11.81         -1.024          14.18          6.107          119.5          12.17          67.13
     1.305              -21.48          37.84          11.04          66.94         -11.69        -0.8377          15.69          6.207          117.1           12.1          67.05
     1.338               -22.0          37.72          11.34          66.47         -11.53        -0.6049          17.58          6.333          114.1           12.0          66.94
      1.37              -22.66          37.56          11.72          65.88         -11.33        -0.3117          19.95          6.491          110.4          11.88          66.81
